<svg width="1312" height="276" viewBox="0 0 1312 276" fill="none" xmlns="http://www.w3.org/2000/svg">
<path d="M478.084 233.583C482.557 223.919 479.007 217.045 468.082 217.045C461.218 217.045 452.693 219.754 444.486 224.155C443.542 221.641 440.916 220.143 436.679 220.143C429.22 220.143 418.93 224.791 410.867 231.357C408.38 229.699 405.453 228.827 402.465 228.853C395.283 228.556 386.686 231.233 379.166 235.583C378.725 235.165 378.204 234.839 377.635 234.625C377.066 234.41 376.461 234.31 375.853 234.332C371.749 234.167 366.179 236.866 363.409 240.354C363.234 240.579 363.091 240.785 362.937 241H480.259C480.491 239.68 480.416 238.324 480.038 237.037C479.661 235.751 478.992 234.569 478.084 233.583Z" fill="#F5F5F5"/>
<path d="M345.026 187.612C344.665 187.571 344.301 187.55 343.938 187.55C344.277 183.775 342.317 181.395 338.142 181.395C335.126 181.395 331.432 182.657 327.657 184.791C328.734 177.466 325.287 172.695 317.46 172.695C311.15 172.695 303.169 175.773 295.279 180.903C294.592 178.03 292.263 176.306 288.355 176.306C281.502 176.306 271.745 181.621 263.928 189.13C261.853 187.266 259.157 186.241 256.367 186.258C249.832 185.919 241.727 188.976 234.536 193.962C234.193 193.5 233.743 193.128 233.225 192.878C232.707 192.628 232.136 192.507 231.561 192.526C227.99 192.352 223.066 195.091 220.214 198.774H350.771C353.838 193.142 351.396 188.258 345.026 187.612Z" fill="#F5F5F5"/>
<path d="M169.926 171.618C172.798 165.463 170.511 161 163.504 161C159.102 161 153.645 162.734 148.331 165.565C147.735 163.955 146.043 162.98 143.324 162.98C138.533 162.98 131.937 165.976 126.766 170.161C125.168 169.1 123.288 168.543 121.37 168.561C116.794 168.366 111.244 170.079 106.422 172.88C106.14 172.61 105.807 172.399 105.442 172.26C105.078 172.121 104.689 172.056 104.299 172.07C102.771 172.125 101.272 172.497 99.896 173.163C98.5201 173.829 97.2978 174.773 96.3069 175.937L95.9991 176.348H173.506C175.958 174.173 173.25 171.721 169.926 171.618Z" fill="#F5F5F5"/>
<path d="M910.422 268.212C905.725 258.065 909.452 250.847 920.925 250.847C928.131 250.847 937.083 253.691 945.7 258.312C946.691 255.673 949.449 254.101 953.898 254.101C961.729 254.101 972.533 258.98 981 265.874C983.611 264.134 986.684 263.218 989.822 263.246C997.363 262.934 1006.39 265.745 1014.29 270.312C1014.75 269.874 1015.3 269.531 1015.89 269.306C1016.49 269.08 1017.13 268.976 1017.76 268.998C1022.07 268.826 1027.92 271.659 1030.83 275.321C1031.01 275.558 1031.17 275.774 1031.33 276H908.138C907.895 274.614 907.974 273.19 908.37 271.839C908.766 270.488 909.468 269.247 910.422 268.212Z" fill="#F5F5F5"/>
<path d="M1050.13 219.943C1050.51 219.899 1050.89 219.878 1051.27 219.878C1050.92 215.914 1052.98 213.415 1057.36 213.415C1060.53 213.415 1064.41 214.74 1068.37 216.98C1067.24 209.289 1070.86 204.28 1079.08 204.28C1085.7 204.28 1094.08 207.512 1102.37 212.898C1103.09 209.882 1105.53 208.072 1109.64 208.072C1116.83 208.072 1127.08 213.652 1135.28 221.537C1137.46 219.579 1140.29 218.503 1143.22 218.521C1150.09 218.165 1158.6 221.375 1166.15 226.61C1166.51 226.125 1166.98 225.735 1167.52 225.472C1168.07 225.209 1168.67 225.083 1169.27 225.102C1173.02 224.919 1178.19 227.795 1181.18 231.662H1044.1C1040.88 225.749 1043.44 220.621 1050.13 219.943Z" fill="#F5F5F5"/>
<path d="M1233.99 203.149C1230.97 196.686 1233.37 192 1240.73 192C1245.35 192 1251.08 193.82 1256.66 196.794C1257.29 195.102 1259.07 194.079 1261.92 194.079C1266.95 194.079 1273.88 197.224 1279.31 201.619C1280.98 200.505 1282.96 199.92 1284.97 199.939C1289.78 199.734 1295.6 201.533 1300.67 204.474C1300.96 204.19 1301.31 203.969 1301.7 203.823C1302.08 203.677 1302.49 203.609 1302.9 203.623C1304.5 203.681 1306.07 204.072 1307.52 204.771C1308.96 205.47 1310.25 206.462 1311.29 207.684L1311.61 208.115H1230.23C1227.65 205.831 1230.5 203.257 1233.99 203.149Z" fill="#F5F5F5"/>
<path d="M772.143 98.9085C766.048 85.7393 770.885 76.3727 785.774 76.3727C795.126 76.3727 806.744 80.0635 817.928 86.0609C819.214 82.6358 822.793 80.5947 828.566 80.5947C838.73 80.5947 852.752 86.9276 863.74 95.8748C867.128 93.6158 871.117 92.4273 875.19 92.4637C884.976 92.0583 896.691 95.7071 906.938 101.635C907.54 101.065 908.249 100.621 909.025 100.328C909.8 100.035 910.626 99.8997 911.454 99.929C917.046 99.7054 924.637 103.382 928.411 108.135C928.649 108.443 928.845 108.722 929.055 109.016H769.179C768.863 107.217 768.966 105.369 769.48 103.616C769.994 101.863 770.905 100.252 772.143 98.9085Z" fill="#F5F5F5"/>
<path d="M953.462 36.2641C953.954 36.2079 954.448 36.1799 954.944 36.1802C954.482 31.0356 957.152 27.7922 962.842 27.7922C966.952 27.7922 971.985 29.5118 977.13 32.4196C975.662 22.4379 980.359 15.9372 991.026 15.9372C999.624 15.9372 1010.5 20.1312 1021.25 27.1212C1022.19 23.2068 1025.36 20.8582 1030.69 20.8582C1040.03 20.8582 1053.32 28.0998 1063.97 38.3332C1066.8 35.792 1070.48 34.3963 1074.28 34.4188C1083.18 33.9574 1094.23 38.1235 1104.03 44.9177C1104.49 44.2882 1105.11 43.7812 1105.81 43.4404C1106.52 43.0995 1107.3 42.9349 1108.08 42.9605C1112.95 42.7229 1119.66 46.4555 1123.54 51.4744H945.633C941.453 43.7993 944.78 37.1449 953.462 36.2641Z" fill="#F5F5F5"/>
<path d="M1192.07 14.4693C1188.16 6.08131 1191.27 0 1200.82 0C1206.82 0 1214.26 2.36263 1221.5 6.22111C1222.31 4.02625 1224.62 2.69814 1228.32 2.69814C1234.85 2.69814 1243.84 6.7803 1250.88 12.4841C1253.06 11.0382 1255.62 10.2785 1258.24 10.3033C1264.47 10.0376 1272.04 12.3723 1278.61 16.1888C1278.99 15.8209 1279.44 15.5336 1279.94 15.3439C1280.44 15.1542 1280.97 15.066 1281.5 15.0844C1283.58 15.1595 1285.62 15.6668 1287.5 16.5742C1289.37 17.4815 1291.04 18.769 1292.39 20.3549L1292.81 20.9141H1187.19C1183.85 17.9503 1187.54 14.6091 1192.07 14.4693Z" fill="#F5F5F5"/>
<path d="M520.667 98.9085C526.763 85.7393 521.926 76.3727 507.037 76.3727C497.684 76.3727 486.067 80.0635 474.883 86.0609C473.597 82.6358 470.018 80.5947 464.244 80.5947C454.081 80.5947 440.059 86.9276 429.071 95.8748C425.682 93.6158 421.693 92.4273 417.621 92.4637C407.835 92.0583 396.12 95.7071 385.872 101.635C385.27 101.065 384.561 100.621 383.786 100.328C383.011 100.035 382.185 99.8997 381.357 99.929C375.765 99.7054 368.174 103.382 364.399 108.135C364.161 108.443 363.966 108.722 363.756 109.016H523.631C523.947 107.217 523.844 105.369 523.33 103.616C522.816 101.863 521.905 100.252 520.667 98.9085Z" fill="#F5F5F5"/>
<path d="M339.349 36.2641C338.857 36.2079 338.362 36.1799 337.867 36.1802C338.328 31.0356 335.658 27.7922 329.968 27.7922C325.858 27.7922 320.825 29.5118 315.681 32.4196C317.149 22.4379 312.451 15.9372 301.785 15.9372C293.187 15.9372 282.31 20.1312 271.56 27.1212C270.623 23.2068 267.45 20.8582 262.123 20.8582C252.785 20.8582 239.49 28.0998 228.837 38.3332C226.009 35.792 222.335 34.3963 218.534 34.4188C209.628 33.9574 198.584 38.1235 188.784 44.9177C188.317 44.2882 187.704 43.7812 186.998 43.4404C186.292 43.0995 185.514 42.9349 184.73 42.9605C179.865 42.7229 173.155 46.4555 169.268 51.4744H347.178C351.358 43.7993 348.03 37.1449 339.349 36.2641Z" fill="#F5F5F5"/>
<path d="M100.741 14.4693C104.655 6.08131 101.538 0 91.9892 0C85.9918 0 78.5545 2.36263 71.3129 6.22111C70.502 4.02625 68.1953 2.69814 64.4906 2.69814C57.9619 2.69814 48.9728 6.7803 41.9269 12.4841C39.7489 11.0382 37.1875 10.2785 34.5734 10.3033C28.3383 10.0376 20.7751 12.3723 14.2045 16.1888C13.8203 15.8209 13.3663 15.5336 12.8693 15.3439C12.3723 15.1542 11.8423 15.066 11.3107 15.0844C9.22913 15.1595 7.18597 15.6668 5.3111 16.5742C3.43623 17.4815 1.77063 18.769 0.420235 20.3549L0.000854492 20.9141H105.62C108.961 17.9503 105.27 14.6091 100.741 14.4693Z" fill="#F5F5F5"/>
</svg>
