<svg width="699" height="521" viewBox="0 0 699 521" fill="none" xmlns="http://www.w3.org/2000/svg">
<path d="M699 457.705H0V458.055H699V457.705Z" fill="#E0E0E0"/>
<path d="M152.968 474.467H72.2051V474.817H152.968V474.467Z" fill="#E0E0E0"/>
<path d="M329.452 466.876H292.656V467.226H329.452V466.876Z" fill="#E0E0E0"/>
<path d="M414.592 466.694H342.902V467.044H414.592V466.694Z" fill="#E0E0E0"/>
<path d="M551.049 470.888H533.588V471.238H551.049V470.888Z" fill="#E0E0E0"/>
<path d="M473.295 470.888H403.646V471.238H473.295V470.888Z" fill="#E0E0E0"/>
<path d="M180.342 474.467H166.502V474.817H180.342V474.467Z" fill="#E0E0E0"/>
<path d="M622.922 470.888H562.459V471.238H622.922V470.888Z" fill="#E0E0E0"/>
<path d="M331.326 395.354H61.3866C59.2719 395.351 57.2451 394.508 55.7511 393.011C54.2571 391.515 53.418 389.487 53.418 387.372V7.91268C53.4364 5.81012 54.2836 3.79973 55.7756 2.31819C57.2676 0.836645 59.2839 0.00360179 61.3866 0H331.326C333.444 0 335.474 0.84102 336.971 2.33804C338.468 3.83507 339.309 5.86547 339.309 7.98258V387.372C339.309 389.489 338.468 391.519 336.971 393.016C335.474 394.513 333.444 395.354 331.326 395.354ZM61.3866 0.279601C59.3646 0.283304 57.4267 1.08913 55.9982 2.52021C54.5697 3.95129 53.7675 5.89068 53.7675 7.91268V387.372C53.7675 389.394 54.5697 391.333 55.9982 392.764C57.4267 394.195 59.3646 395.001 61.3866 395.005H331.326C333.35 395.001 335.289 394.196 336.72 392.765C338.15 391.334 338.956 389.395 338.96 387.372V7.91268C338.956 5.8894 338.15 3.95004 336.72 2.51936C335.289 1.08868 333.35 0.283297 331.326 0.279601H61.3866Z" fill="#FAFAFA"/>
<path d="M633.727 395.354H363.774C361.658 395.351 359.629 394.509 358.133 393.012C356.637 391.516 355.795 389.488 355.791 387.372V7.91268C355.813 5.80885 356.663 3.79847 358.158 2.31731C359.652 0.836156 361.67 0.00356251 363.774 0H633.727C635.828 0.00727589 637.84 0.841944 639.329 2.3231C640.818 3.80425 641.664 5.81254 641.682 7.91268V387.372C641.682 389.484 640.845 391.51 639.354 393.006C637.863 394.503 635.84 395.347 633.727 395.354ZM363.774 0.279601C361.75 0.283297 359.811 1.08868 358.38 2.51936C356.95 3.95004 356.144 5.8894 356.141 7.91268V387.372C356.144 389.395 356.95 391.334 358.38 392.765C359.811 394.196 361.75 395.001 363.774 395.005H633.727C635.751 395.001 637.69 394.196 639.121 392.765C640.551 391.334 641.357 389.395 641.36 387.372V7.91268C641.357 5.8894 640.551 3.95004 639.121 2.51936C637.69 1.08868 635.751 0.283297 633.727 0.279601H363.774Z" fill="#FAFAFA"/>
<path d="M107.116 114.37C101.02 101.201 105.858 91.8346 120.746 91.8346C130.099 91.8346 141.716 95.5253 152.9 101.523C154.186 98.0977 157.765 96.0566 163.539 96.0566C173.702 96.0566 187.724 102.39 198.713 111.337C202.101 109.078 206.09 107.889 210.162 107.926C219.948 107.52 231.664 111.169 241.911 117.096C242.513 116.527 243.222 116.083 243.997 115.79C244.773 115.497 245.598 115.362 246.426 115.391C252.018 115.167 259.61 118.844 263.384 123.597C263.622 123.905 263.818 124.184 264.027 124.478H104.152C103.836 122.679 103.939 120.831 104.453 119.078C104.967 117.325 105.878 115.714 107.116 114.37Z" fill="#F5F5F5"/>
<path d="M288.434 51.726C288.926 51.6698 289.421 51.6418 289.916 51.6421C289.455 46.4975 292.125 43.2541 297.815 43.2541C301.925 43.2541 306.958 44.9737 312.103 47.8815C310.635 37.8998 315.332 31.3991 325.999 31.3991C334.596 31.3991 345.473 35.5931 356.223 42.5831C357.16 38.6687 360.334 36.32 365.66 36.32C374.999 36.32 388.294 43.5617 398.946 53.795C401.774 51.2539 405.448 49.8582 409.25 49.8806C418.155 49.4193 429.199 53.5853 438.999 60.3796C439.466 59.75 440.079 59.2431 440.785 58.9023C441.491 58.5614 442.27 58.3967 443.053 58.4224C447.918 58.1848 454.629 61.9174 458.515 66.9362H280.606C276.426 59.2612 279.753 52.6067 288.434 51.726Z" fill="#F5F5F5"/>
<path d="M527.042 29.9312C523.128 21.5432 526.246 15.4619 535.794 15.4619C541.791 15.4619 549.229 17.8245 556.47 21.683C557.281 19.4881 559.588 18.16 563.293 18.16C569.821 18.16 578.81 22.2422 585.856 27.946C588.034 26.5001 590.596 25.7404 593.21 25.7651C599.445 25.4995 607.008 27.8342 613.579 31.6507C613.963 31.2828 614.417 30.9955 614.914 30.8058C615.411 30.6161 615.941 30.5279 616.473 30.5463C618.554 30.6214 620.597 31.1287 622.472 32.0361C624.347 32.9434 626.013 34.2309 627.363 35.8168L627.782 36.376H522.163C518.822 33.4122 522.513 30.071 527.042 29.9312Z" fill="#F5F5F5"/>
<path d="M172.249 305.491H124.633V457.705H172.249V305.491Z" fill="#EBEBEB"/>
<path d="M156.687 457.705H234.766L234.766 252.521H156.687L156.687 457.705Z" fill="#F5F5F5"/>
<path d="M275.294 252.521H234.766V457.705H275.294V252.521Z" fill="#EBEBEB"/>
<path d="M167.186 252.521H234.766V232.124H167.186V252.521Z" fill="#F5F5F5"/>
<path d="M167.186 252.521H234.766V247.935H167.186V252.521Z" fill="#EBEBEB"/>
<path d="M264.781 232.124H234.766V252.521H264.781V232.124Z" fill="#EBEBEB"/>
<path d="M177.688 232.124H234.754V211.727H177.688V232.124Z" fill="#F5F5F5"/>
<path d="M177.688 232.124H234.754V227.539H177.688V232.124Z" fill="#EBEBEB"/>
<path d="M254.282 211.727H234.766V232.124H254.282V211.727Z" fill="#EBEBEB"/>
<path d="M217.88 183.236H214.092V211.741H217.88V183.236Z" fill="#EBEBEB"/>
<path d="M262.349 457.705H319.373V288.198H262.349V457.705Z" fill="#F5F5F5"/>
<path d="M348.969 288.198H319.373V457.705H348.969V288.198Z" fill="#EBEBEB"/>
<path d="M334.166 336.624L377.406 373.699V457.705H334.166V336.624Z" fill="#F5F5F5"/>
<path d="M399.854 373.685H377.416V457.691H399.854V373.685Z" fill="#EBEBEB"/>
<path d="M399.858 373.699H377.406L334.166 336.624H356.618L399.858 373.699Z" fill="#EBEBEB"/>
<path d="M602.537 457.705C603.137 454.347 604.564 451.191 606.69 448.523C608.816 445.855 611.574 443.759 614.714 442.425C611.957 447.021 610.706 452.363 611.135 457.705H602.537Z" fill="#EBEBEB"/>
<path d="M199.259 457.705C198.659 454.347 197.231 451.191 195.105 448.523C192.979 445.855 190.222 443.759 187.082 442.425C189.838 447.021 191.09 452.363 190.661 457.705H199.259Z" fill="#EBEBEB"/>
<path d="M99.4124 457.705C99.4124 457.705 98.7273 439.811 91.248 434.61C94.3097 441.922 93.6666 457.705 93.6666 457.705H99.4124Z" fill="#EBEBEB"/>
<path d="M96.6055 457.705C96.6055 457.705 97.2905 447.43 104.77 444.452C101.708 448.646 102.379 457.705 102.379 457.705H96.6055Z" fill="#EBEBEB"/>
<path d="M205.661 457.705C205.661 457.705 204.906 440.761 191.346 434.61C197.413 443.306 197.064 457.705 197.064 457.705H205.661Z" fill="#EBEBEB"/>
<path d="M540.032 434.778H505.767C505.396 434.778 505.041 434.631 504.779 434.369C504.516 434.106 504.369 433.751 504.369 433.38V399.157C504.369 398.786 504.516 398.431 504.779 398.168C505.041 397.906 505.396 397.759 505.767 397.759H540.032C540.403 397.759 540.758 397.906 541.021 398.168C541.283 398.431 541.43 398.786 541.43 399.157V433.38C541.43 433.751 541.283 434.106 541.021 434.369C540.758 434.631 540.403 434.778 540.032 434.778ZM507.165 431.982H538.634V400.555H507.165V431.982Z" fill="#E0E0E0"/>
<path d="M540.032 400.555H505.767C505.396 400.555 505.041 400.408 504.779 400.146C504.516 399.883 504.369 399.528 504.369 399.157V364.878C504.369 364.507 504.516 364.152 504.779 363.89C505.041 363.627 505.396 363.48 505.767 363.48H540.032C540.403 363.48 540.758 363.627 541.021 363.89C541.283 364.152 541.43 364.507 541.43 364.878V399.157C541.43 399.528 541.283 399.883 541.021 400.146C540.758 400.408 540.403 400.555 540.032 400.555ZM507.165 397.759H538.634V366.276H507.165V397.759Z" fill="#E0E0E0"/>
<path d="M540.034 434.778C539.665 434.773 539.313 434.622 539.055 434.359L504.776 400.094C504.513 399.83 504.365 399.473 504.365 399.101C504.365 398.729 504.513 398.372 504.776 398.108C505.04 397.845 505.397 397.697 505.769 397.697C506.141 397.697 506.498 397.845 506.762 398.108L541.027 432.443C541.287 432.705 541.433 433.06 541.433 433.429C541.433 433.798 541.287 434.153 541.027 434.415C540.756 434.661 540.4 434.791 540.034 434.778Z" fill="#E0E0E0"/>
<path d="M540.033 400.555C539.666 400.553 539.315 400.408 539.055 400.15L504.776 365.871C504.515 365.609 504.369 365.254 504.369 364.885C504.369 364.516 504.515 364.161 504.776 363.899C504.906 363.768 505.06 363.664 505.231 363.593C505.401 363.522 505.584 363.486 505.768 363.486C505.953 363.486 506.136 363.522 506.306 363.593C506.476 363.664 506.631 363.768 506.761 363.899L541.026 398.164C541.223 398.36 541.357 398.61 541.412 398.882C541.467 399.154 541.439 399.437 541.332 399.693C541.226 399.95 541.046 400.168 540.814 400.322C540.583 400.475 540.311 400.557 540.033 400.555Z" fill="#E0E0E0"/>
<path d="M540.032 366.276H505.767C505.396 366.276 505.041 366.129 504.779 365.867C504.516 365.604 504.369 365.249 504.369 364.878V330.613C504.369 330.242 504.516 329.887 504.779 329.625C505.041 329.362 505.396 329.215 505.767 329.215H540.032C540.403 329.215 540.758 329.362 541.021 329.625C541.283 329.887 541.43 330.242 541.43 330.613V364.878C541.43 365.249 541.283 365.604 541.021 365.867C540.758 366.129 540.403 366.276 540.032 366.276ZM507.165 363.48H538.634V332.011H507.165V363.48Z" fill="#E0E0E0"/>
<path d="M540.032 332.011H505.767C505.396 332.011 505.041 331.864 504.779 331.602C504.516 331.339 504.369 330.984 504.369 330.613V296.376C504.369 296.005 504.516 295.65 504.779 295.388C505.041 295.125 505.396 294.978 505.767 294.978H540.032C540.403 294.978 540.758 295.125 541.021 295.388C541.283 295.65 541.43 296.005 541.43 296.376V330.655C541.419 331.018 541.267 331.363 541.006 331.617C540.745 331.87 540.396 332.011 540.032 332.011ZM507.165 329.215H538.634V297.774H507.165V329.215Z" fill="#E0E0E0"/>
<path d="M540.033 366.276C539.666 366.274 539.315 366.129 539.055 365.871L504.776 331.592C504.515 331.33 504.369 330.975 504.369 330.606C504.369 330.237 504.515 329.882 504.776 329.62C504.906 329.489 505.06 329.385 505.231 329.314C505.401 329.243 505.584 329.207 505.768 329.207C505.953 329.207 506.136 329.243 506.306 329.314C506.476 329.385 506.631 329.489 506.761 329.62L541.026 363.899C541.286 364.161 541.432 364.516 541.432 364.885C541.432 365.254 541.286 365.609 541.026 365.871C540.895 366 540.74 366.103 540.57 366.172C540.4 366.242 540.217 366.277 540.033 366.276Z" fill="#E0E0E0"/>
<path d="M540.034 332.011C539.665 332.006 539.313 331.855 539.055 331.592L504.776 297.327C504.513 297.063 504.365 296.706 504.365 296.334C504.365 295.962 504.513 295.605 504.776 295.342C505.04 295.078 505.397 294.93 505.769 294.93C506.141 294.93 506.498 295.078 506.762 295.342L541.027 329.62C541.287 329.882 541.433 330.237 541.433 330.606C541.433 330.975 541.287 331.33 541.027 331.592C540.897 331.724 540.743 331.829 540.572 331.901C540.402 331.973 540.219 332.01 540.034 332.011Z" fill="#E0E0E0"/>
<path d="M540.032 297.774H505.767C505.396 297.774 505.041 297.627 504.779 297.364C504.516 297.102 504.369 296.747 504.369 296.376V262.055C504.369 261.684 504.516 261.329 504.779 261.067C505.041 260.804 505.396 260.657 505.767 260.657H540.032C540.403 260.657 540.758 260.804 541.021 261.067C541.283 261.329 541.43 261.684 541.43 262.055V296.376C541.43 296.747 541.283 297.102 541.021 297.364C540.758 297.627 540.403 297.774 540.032 297.774ZM507.165 294.978H538.634V263.453H507.165V294.978Z" fill="#E0E0E0"/>
<path d="M540.032 263.453H505.767C505.396 263.453 505.041 263.306 504.779 263.044C504.516 262.781 504.369 262.426 504.369 262.055V227.79C504.369 227.419 504.516 227.064 504.779 226.802C505.041 226.539 505.396 226.392 505.767 226.392H540.032C540.403 226.392 540.758 226.539 541.021 226.802C541.283 227.064 541.43 227.419 541.43 227.79V262.055C541.43 262.426 541.283 262.781 541.021 263.044C540.758 263.306 540.403 263.453 540.032 263.453ZM507.165 260.657H538.634V229.188H507.165V260.657Z" fill="#E0E0E0"/>
<path d="M540.033 297.774C539.666 297.772 539.315 297.627 539.055 297.369L504.776 263.09C504.515 262.828 504.369 262.473 504.369 262.104C504.369 261.735 504.515 261.38 504.776 261.118C504.906 260.987 505.06 260.883 505.231 260.812C505.401 260.741 505.584 260.705 505.768 260.705C505.953 260.705 506.136 260.741 506.306 260.812C506.476 260.883 506.631 260.987 506.761 261.118L541.026 295.341C541.223 295.537 541.357 295.787 541.412 296.059C541.467 296.331 541.439 296.614 541.332 296.87C541.226 297.127 541.046 297.346 540.814 297.499C540.583 297.653 540.311 297.734 540.033 297.732V297.774Z" fill="#E0E0E0"/>
<path d="M505.769 148.957H471.49C471.119 148.957 470.763 148.81 470.501 148.547C470.239 148.285 470.092 147.93 470.092 147.559V113.238C470.092 112.867 470.239 112.512 470.501 112.249C470.763 111.987 471.119 111.84 471.49 111.84H505.769C506.14 111.84 506.495 111.987 506.757 112.249C507.019 112.512 507.167 112.867 507.167 113.238V147.503C507.174 147.691 507.144 147.879 507.077 148.055C507.01 148.231 506.908 148.392 506.778 148.528C506.647 148.664 506.49 148.772 506.317 148.845C506.144 148.919 505.957 148.957 505.769 148.957ZM472.888 146.161H504.371V114.636H472.888V146.161Z" fill="#E0E0E0"/>
<path d="M540.032 148.957H505.767C505.396 148.957 505.041 148.81 504.779 148.547C504.516 148.285 504.369 147.93 504.369 147.559C504.369 147.188 504.516 146.833 504.779 146.57C505.041 146.308 505.396 146.161 505.767 146.161H538.634V79.0569C538.634 78.6861 538.781 78.3305 539.044 78.0684C539.306 77.8062 539.661 77.6589 540.032 77.6589C540.403 77.6589 540.758 77.8062 541.021 78.0684C541.283 78.3305 541.43 78.6861 541.43 79.0569V147.559C541.43 147.93 541.283 148.285 541.021 148.547C540.758 148.81 540.403 148.957 540.032 148.957Z" fill="#E0E0E0"/>
<path d="M505.765 148.957C505.526 148.959 505.29 148.899 505.08 148.783C504.87 148.667 504.694 148.5 504.568 148.296C504.441 148.093 504.369 147.86 504.359 147.621C504.348 147.382 504.399 147.144 504.507 146.93L538.786 78.4278C538.954 78.0985 539.245 77.849 539.596 77.7338C539.947 77.6185 540.329 77.6469 540.659 77.8127C540.991 77.9778 541.244 78.2679 541.362 78.6191C541.48 78.9704 541.453 79.3541 541.288 79.686L507.009 148.188C506.893 148.419 506.716 148.612 506.496 148.748C506.276 148.884 506.023 148.956 505.765 148.957Z" fill="#E0E0E0"/>
<path d="M471.489 148.957H437.224C436.853 148.957 436.498 148.81 436.236 148.547C435.973 148.285 435.826 147.93 435.826 147.559V113.238C435.826 112.867 435.973 112.512 436.236 112.249C436.498 111.987 436.853 111.84 437.224 111.84H471.489C471.86 111.84 472.216 111.987 472.478 112.249C472.74 112.512 472.887 112.867 472.887 113.238V147.503C472.895 147.691 472.864 147.879 472.797 148.055C472.73 148.231 472.629 148.392 472.498 148.528C472.367 148.664 472.211 148.772 472.037 148.845C471.864 148.919 471.678 148.957 471.489 148.957ZM438.622 146.161H470.091V114.636H438.622V146.161Z" fill="#E0E0E0"/>
<path d="M471.49 148.957C471.216 148.953 470.95 148.869 470.723 148.715C470.497 148.561 470.321 148.344 470.217 148.091C470.112 147.838 470.085 147.56 470.137 147.292C470.189 147.023 470.32 146.776 470.511 146.58L504.776 112.301C504.906 112.17 505.061 112.066 505.231 111.995C505.401 111.924 505.584 111.888 505.769 111.888C505.953 111.888 506.136 111.924 506.306 111.995C506.477 112.066 506.631 112.17 506.761 112.301C507.022 112.563 507.168 112.918 507.168 113.287C507.168 113.656 507.022 114.011 506.761 114.273L472.524 148.551C472.389 148.686 472.227 148.792 472.049 148.861C471.871 148.931 471.681 148.964 471.49 148.957Z" fill="#E0E0E0"/>
<path d="M574.314 148.957H540.035C539.664 148.957 539.308 148.81 539.046 148.547C538.784 148.285 538.637 147.93 538.637 147.559V113.238C538.637 112.867 538.784 112.512 539.046 112.249C539.308 111.987 539.664 111.84 540.035 111.84H574.314C574.684 111.84 575.04 111.987 575.302 112.249C575.564 112.512 575.712 112.867 575.712 113.238V147.503C575.719 147.691 575.689 147.879 575.622 148.055C575.555 148.231 575.453 148.392 575.323 148.528C575.192 148.664 575.035 148.772 574.862 148.845C574.689 148.919 574.502 148.957 574.314 148.957ZM541.433 146.161H572.916V114.636H541.433V146.161Z" fill="#E0E0E0"/>
<path d="M540.033 148.957C539.759 148.953 539.493 148.869 539.266 148.715C539.04 148.561 538.864 148.344 538.76 148.091C538.655 147.838 538.628 147.56 538.68 147.292C538.732 147.023 538.862 146.776 539.054 146.58L573.319 112.301C573.449 112.17 573.604 112.066 573.774 111.995C573.944 111.924 574.127 111.888 574.312 111.888C574.496 111.888 574.679 111.924 574.849 111.995C575.02 112.066 575.174 112.17 575.304 112.301C575.565 112.563 575.711 112.918 575.711 113.287C575.711 113.656 575.565 114.011 575.304 114.273L541.025 148.551C540.895 148.681 540.74 148.784 540.569 148.853C540.399 148.923 540.217 148.958 540.033 148.957Z" fill="#E0E0E0"/>
<path d="M334.403 148.957C334.219 148.958 334.037 148.923 333.866 148.853C333.696 148.784 333.541 148.681 333.41 148.551C333.15 148.29 333.004 147.935 333.004 147.566C333.004 147.197 333.15 146.842 333.41 146.58L367.675 112.301C367.866 112.102 368.116 111.969 368.388 111.924L539.769 77.6449C539.994 77.6 540.226 77.6109 540.445 77.6767C540.665 77.7425 540.865 77.8612 541.027 78.0224L609.529 146.524C609.676 146.65 609.795 146.804 609.879 146.977C609.962 147.151 610.01 147.34 610.017 147.532C610.024 147.725 609.992 147.917 609.922 148.096C609.851 148.276 609.745 148.439 609.609 148.575C609.472 148.711 609.309 148.818 609.13 148.888C608.951 148.958 608.759 148.991 608.566 148.983C608.374 148.976 608.185 148.929 608.011 148.845C607.838 148.761 607.684 148.642 607.558 148.496L539.629 80.5388L369.367 114.636L335.382 148.607C335.112 148.845 334.762 148.97 334.403 148.957Z" fill="#E0E0E0"/>
<path d="M437.223 148.957C437.039 148.958 436.857 148.923 436.687 148.853C436.516 148.784 436.361 148.681 436.231 148.552C435.97 148.29 435.824 147.935 435.824 147.566C435.824 147.197 435.97 146.842 436.231 146.58L470.51 112.301C470.777 112.072 471.121 111.953 471.473 111.966C471.825 111.98 472.159 112.126 472.408 112.375C472.657 112.624 472.802 112.957 472.816 113.309C472.83 113.661 472.71 114.005 472.481 114.273L438.202 148.552C437.942 148.81 437.59 148.955 437.223 148.957Z" fill="#E0E0E0"/>
<path d="M437.224 148.957H402.945C402.574 148.957 402.218 148.81 401.956 148.547C401.694 148.285 401.547 147.93 401.547 147.559V113.238C401.547 112.867 401.694 112.512 401.956 112.249C402.218 111.987 402.574 111.84 402.945 111.84H437.224C437.595 111.84 437.95 111.987 438.212 112.249C438.475 112.512 438.622 112.867 438.622 113.238V147.503C438.629 147.691 438.599 147.879 438.532 148.055C438.465 148.231 438.363 148.392 438.233 148.528C438.102 148.664 437.945 148.772 437.772 148.845C437.599 148.919 437.412 148.957 437.224 148.957ZM404.343 146.161H435.826V114.636H404.343V146.161Z" fill="#E0E0E0"/>
<path d="M402.943 148.957H368.664C368.293 148.957 367.937 148.81 367.675 148.547C367.413 148.285 367.266 147.93 367.266 147.559V113.238C367.266 112.867 367.413 112.512 367.675 112.249C367.937 111.987 368.293 111.84 368.664 111.84H402.943C403.313 111.84 403.669 111.987 403.931 112.249C404.193 112.512 404.341 112.867 404.341 113.238V147.503C404.348 147.691 404.318 147.879 404.251 148.055C404.184 148.231 404.082 148.392 403.951 148.528C403.821 148.664 403.664 148.772 403.491 148.845C403.317 148.919 403.131 148.957 402.943 148.957ZM370.062 146.161H401.545V114.636H370.062V146.161Z" fill="#E0E0E0"/>
<path d="M402.946 148.957C402.762 148.958 402.58 148.923 402.409 148.853C402.239 148.784 402.084 148.681 401.953 148.552C401.693 148.29 401.547 147.935 401.547 147.566C401.547 147.197 401.693 146.842 401.953 146.58L436.176 112.301C436.444 112.072 436.788 111.953 437.14 111.966C437.492 111.98 437.825 112.126 438.074 112.375C438.323 112.624 438.469 112.957 438.483 113.309C438.496 113.661 438.377 114.005 438.148 114.273L403.883 148.552C403.633 148.8 403.298 148.945 402.946 148.957Z" fill="#E0E0E0"/>
<path d="M368.667 148.957C368.394 148.953 368.127 148.869 367.901 148.715C367.675 148.561 367.499 148.344 367.394 148.091C367.29 147.838 367.263 147.56 367.315 147.292C367.367 147.023 367.497 146.776 367.689 146.58L401.954 112.301C402.084 112.17 402.238 112.066 402.409 111.995C402.579 111.924 402.762 111.888 402.946 111.888C403.131 111.888 403.314 111.924 403.484 111.995C403.654 112.066 403.809 112.17 403.939 112.301C404.199 112.563 404.345 112.918 404.345 113.287C404.345 113.656 404.199 114.011 403.939 114.273L369.66 148.551C369.529 148.681 369.374 148.784 369.204 148.853C369.034 148.923 368.851 148.958 368.667 148.957Z" fill="#E0E0E0"/>
<path d="M368.667 148.957H334.402C334.031 148.957 333.676 148.81 333.413 148.547C333.151 148.285 333.004 147.93 333.004 147.559C333.004 147.188 333.151 146.833 333.413 146.57C333.676 146.308 334.031 146.161 334.402 146.161H367.269V113.238C367.269 112.867 367.416 112.512 367.678 112.249C367.941 111.987 368.296 111.84 368.667 111.84C369.038 111.84 369.393 111.987 369.655 112.249C369.918 112.512 370.065 112.867 370.065 113.238V147.503C370.072 147.691 370.042 147.879 369.975 148.055C369.908 148.231 369.806 148.392 369.676 148.528C369.545 148.664 369.388 148.772 369.215 148.845C369.042 148.919 368.855 148.957 368.667 148.957Z" fill="#E0E0E0"/>
<path d="M540.034 263.453C539.667 263.452 539.316 263.306 539.055 263.048L504.776 228.783C504.646 228.652 504.543 228.498 504.472 228.327C504.402 228.157 504.365 227.974 504.365 227.79C504.365 227.606 504.402 227.423 504.472 227.253C504.543 227.083 504.646 226.928 504.776 226.798C504.907 226.667 505.061 226.564 505.232 226.493C505.402 226.423 505.585 226.386 505.769 226.386C505.953 226.386 506.136 226.423 506.306 226.493C506.476 226.564 506.631 226.667 506.762 226.798L541.027 261.077C541.287 261.338 541.433 261.693 541.433 262.062C541.433 262.431 541.287 262.786 541.027 263.048C540.896 263.177 540.741 263.28 540.571 263.349C540.4 263.419 540.218 263.454 540.034 263.453Z" fill="#E0E0E0"/>
<path d="M540.032 229.188H505.767C505.396 229.188 505.041 229.041 504.779 228.779C504.516 228.517 504.369 228.161 504.369 227.79V193.511C504.369 193.14 504.516 192.785 504.779 192.523C505.041 192.26 505.396 192.113 505.767 192.113H540.032C540.403 192.113 540.758 192.26 541.021 192.523C541.283 192.785 541.43 193.14 541.43 193.511V227.79C541.43 228.161 541.283 228.517 541.021 228.779C540.758 229.041 540.403 229.188 540.032 229.188ZM507.165 226.392H538.634V194.909H507.165V226.392Z" fill="#E0E0E0"/>
<path d="M540.032 194.909H505.767C505.396 194.909 505.041 194.762 504.779 194.5C504.516 194.238 504.369 193.882 504.369 193.511V159.246C504.369 158.875 504.516 158.52 504.779 158.258C505.041 157.995 505.396 157.848 505.767 157.848H540.032C540.403 157.848 540.758 157.995 541.021 158.258C541.283 158.52 541.43 158.875 541.43 159.246V193.511C541.43 193.882 541.283 194.238 541.021 194.5C540.758 194.762 540.403 194.909 540.032 194.909ZM507.165 192.113H538.634V160.644H507.165V192.113Z" fill="#E0E0E0"/>
<path d="M540.034 229.188C539.667 229.187 539.316 229.041 539.055 228.783L504.776 194.504C504.646 194.373 504.543 194.219 504.472 194.048C504.402 193.878 504.365 193.696 504.365 193.511C504.365 193.327 504.402 193.144 504.472 192.974C504.543 192.804 504.646 192.649 504.776 192.519C504.907 192.388 505.061 192.285 505.232 192.214C505.402 192.144 505.585 192.107 505.769 192.107C505.953 192.107 506.136 192.144 506.306 192.214C506.476 192.285 506.631 192.388 506.762 192.519L541.027 226.798C541.224 226.993 541.358 227.243 541.413 227.515C541.467 227.787 541.44 228.07 541.333 228.326C541.227 228.583 541.046 228.802 540.815 228.955C540.583 229.109 540.312 229.19 540.034 229.188Z" fill="#E0E0E0"/>
<path d="M540.033 194.909C539.666 194.908 539.315 194.762 539.055 194.504L504.776 160.225C504.515 159.963 504.369 159.609 504.369 159.239C504.369 158.87 504.515 158.516 504.776 158.254C504.906 158.123 505.06 158.019 505.231 157.948C505.401 157.877 505.584 157.84 505.768 157.84C505.953 157.84 506.136 157.877 506.306 157.948C506.476 158.019 506.631 158.123 506.761 158.254L541.026 192.519C541.223 192.714 541.357 192.964 541.412 193.236C541.467 193.508 541.439 193.791 541.332 194.047C541.226 194.304 541.046 194.523 540.814 194.676C540.583 194.83 540.311 194.911 540.033 194.909Z" fill="#E0E0E0"/>
<path d="M608.59 147.559H334.4L368.665 159.246H608.59V147.559Z" fill="#E0E0E0"/>
<path d="M608.592 160.644H368.667C368.514 160.643 368.363 160.615 368.22 160.56L333.941 148.887C333.623 148.783 333.353 148.568 333.18 148.281C333.007 147.995 332.942 147.655 332.998 147.325C333.054 146.995 333.226 146.696 333.484 146.483C333.742 146.269 334.067 146.155 334.402 146.161H608.592C608.963 146.161 609.318 146.308 609.58 146.57C609.842 146.833 609.99 147.188 609.99 147.559V159.246C609.99 159.617 609.842 159.973 609.58 160.235C609.318 160.497 608.963 160.644 608.592 160.644ZM368.905 157.848H607.194V148.957H342.832L368.905 157.848Z" fill="#E0E0E0"/>
<path d="M480.394 207.323H505.768V153.403H480.394V207.323Z" fill="#E0E0E0"/>
<path d="M480.379 153.403H468.58V207.323H480.379V153.403Z" fill="#F5F5F5"/>
<path d="M509.541 457.691H559.506V433.422H509.541V457.691Z" fill="#E0E0E0"/>
<path d="M509.544 433.436H486.295V457.705H509.544V433.436Z" fill="#F5F5F5"/>
<path d="M574.314 207.799C573.943 207.799 573.588 207.651 573.326 207.389C573.063 207.127 572.916 206.772 572.916 206.401V153.403C572.916 153.032 573.063 152.676 573.326 152.414C573.588 152.152 573.943 152.005 574.314 152.005C574.685 152.005 575.04 152.152 575.303 152.414C575.565 152.676 575.712 153.032 575.712 153.403V206.401C575.712 206.772 575.565 207.127 575.303 207.389C575.04 207.651 574.685 207.799 574.314 207.799Z" fill="#E0E0E0"/>
<path d="M574.313 214.23C573.4 214.23 572.508 213.959 571.75 213.452C570.991 212.945 570.4 212.225 570.05 211.382C569.701 210.539 569.61 209.611 569.788 208.716C569.966 207.821 570.405 206.999 571.05 206.354C571.696 205.709 572.518 205.269 573.413 205.091C574.308 204.913 575.235 205.005 576.078 205.354C576.921 205.703 577.642 206.294 578.149 207.053C578.655 207.812 578.926 208.704 578.926 209.616C578.926 210.222 578.807 210.822 578.575 211.382C578.343 211.941 578.003 212.45 577.575 212.878C577.146 213.307 576.638 213.647 576.078 213.878C575.518 214.11 574.918 214.23 574.313 214.23ZM574.313 207.799C573.953 207.799 573.602 207.905 573.303 208.105C573.004 208.305 572.771 208.589 572.634 208.921C572.496 209.253 572.46 209.618 572.53 209.971C572.6 210.323 572.773 210.647 573.028 210.901C573.282 211.155 573.606 211.328 573.958 211.399C574.311 211.469 574.676 211.433 575.008 211.295C575.34 211.158 575.624 210.925 575.824 210.626C576.023 210.327 576.13 209.976 576.13 209.616C576.13 209.377 576.083 209.141 575.992 208.921C575.9 208.7 575.767 208.5 575.598 208.331C575.429 208.162 575.229 208.028 575.008 207.937C574.788 207.846 574.551 207.799 574.313 207.799Z" fill="#E0E0E0"/>
<path d="M372.972 235.619C372.601 235.619 372.246 235.472 371.984 235.21C371.721 234.947 371.574 234.592 371.574 234.221V153.403C371.574 153.032 371.721 152.676 371.984 152.414C372.246 152.152 372.601 152.005 372.972 152.005C373.343 152.005 373.699 152.152 373.961 152.414C374.223 152.676 374.37 153.032 374.37 153.403V234.221C374.37 234.592 374.223 234.947 373.961 235.21C373.699 235.472 373.343 235.619 372.972 235.619Z" fill="#E0E0E0"/>
<path d="M386.102 243.993C385.769 243.998 385.445 243.884 385.189 243.671C384.932 243.458 384.76 243.161 384.704 242.833C383.669 241.211 374.568 235.843 372.905 235.619C371.339 235.829 362.238 241.211 361.203 242.833C361.172 243.203 360.994 243.546 360.71 243.786C360.425 244.026 360.057 244.143 359.687 244.112C359.316 244.08 358.973 243.903 358.733 243.618C358.493 243.334 358.376 242.966 358.407 242.595C358.407 239.449 371.087 232.809 372.919 232.809C374.75 232.809 387.444 239.435 387.444 242.595C387.444 242.956 387.305 243.304 387.054 243.564C386.804 243.825 386.463 243.979 386.102 243.993Z" fill="#E0E0E0"/>
<path d="M401.224 345.04L421.733 324.532L417.357 316.144C417.734 315.305 418.084 314.466 418.406 313.599L427.395 310.803V281.837L418.406 279.041C418.07 278.188 417.734 277.335 417.357 276.496L421.719 268.108L401.224 247.642L392.836 252.004C391.997 251.626 391.158 251.277 390.306 250.955L387.51 241.966H358.473L355.677 250.955C354.824 251.277 353.986 251.626 353.147 252.004L344.759 247.642L324.334 268.136L328.71 276.524C328.318 277.363 327.983 278.216 327.647 279.069L318.658 281.865V310.859L327.647 313.655C327.983 314.522 328.318 315.361 328.696 316.2L324.334 324.588L344.843 345.096L353.231 340.721C354.07 341.098 354.922 341.448 355.775 341.769L358.571 350.758H387.58L390.376 341.769C391.228 341.448 392.067 341.098 392.906 340.721L401.224 345.04ZM388.293 311.586C385.274 314.606 381.428 316.663 377.241 317.497C373.053 318.33 368.713 317.904 364.768 316.27C360.823 314.637 357.451 311.87 355.079 308.32C352.707 304.77 351.441 300.597 351.441 296.327C351.441 292.058 352.707 287.884 355.079 284.334C357.451 280.784 360.823 278.017 364.768 276.384C368.713 274.751 373.053 274.324 377.241 275.158C381.428 275.991 385.274 278.048 388.293 281.068C390.295 283.074 391.883 285.455 392.964 288.076C394.046 290.696 394.6 293.504 394.595 296.339C394.589 299.173 394.025 301.979 392.934 304.596C391.843 307.212 390.247 309.588 388.237 311.586H388.293Z" fill="#E0E0E0"/>
<path d="M349.5 520.839C499.201 520.839 620.558 513.754 620.558 505.014C620.558 496.273 499.201 489.188 349.5 489.188C199.798 489.188 78.4414 496.273 78.4414 505.014C78.4414 513.754 199.798 520.839 349.5 520.839Z" fill="#F5F5F5"/>
<path d="M245.893 151.194H228.446C227.649 151.194 226.865 151.404 226.173 151.801C225.482 152.199 224.906 152.77 224.504 153.458L215.78 168.571C215.382 169.264 215.172 170.05 215.172 170.85C215.172 171.649 215.382 172.435 215.78 173.128L224.504 188.227C224.902 188.92 225.477 189.495 226.169 189.896C226.861 190.296 227.647 190.506 228.446 190.505H245.893C246.693 190.506 247.478 190.296 248.17 189.896C248.863 189.495 249.437 188.92 249.836 188.227L258.559 173.128C258.958 172.435 259.168 171.649 259.168 170.85C259.168 170.05 258.958 169.264 258.559 168.571L249.836 153.458C249.433 152.77 248.858 152.199 248.166 151.801C247.474 151.404 246.691 151.194 245.893 151.194Z" fill="#407BFF"/>
<path opacity="0.5" d="M245.893 151.194H228.446C227.649 151.194 226.865 151.404 226.173 151.801C225.482 152.199 224.906 152.77 224.504 153.458L215.78 168.571C215.382 169.264 215.172 170.05 215.172 170.85C215.172 171.649 215.382 172.435 215.78 173.128L224.504 188.227C224.902 188.92 225.477 189.495 226.169 189.896C226.861 190.296 227.647 190.506 228.446 190.505H245.893C246.693 190.506 247.478 190.296 248.17 189.896C248.863 189.495 249.437 188.92 249.836 188.227L258.559 173.128C258.958 172.435 259.168 171.649 259.168 170.85C259.168 170.05 258.958 169.264 258.559 168.571L249.836 153.458C249.433 152.77 248.858 152.199 248.166 151.801C247.474 151.404 246.691 151.194 245.893 151.194Z" fill="white"/>
<path d="M134.205 101.117L133.213 100.125L141.601 91.7368L142.593 92.7293L134.205 101.117ZM148.647 86.676L147.654 85.6834L165.185 68.1525L166.178 69.1311L148.647 86.676Z" fill="#407BFF"/>
<path opacity="0.5" d="M134.205 101.117L133.213 100.125L141.601 91.7368L142.593 92.7293L134.205 101.117ZM148.647 86.676L147.654 85.6834L165.185 68.1525L166.178 69.1311L148.647 86.676Z" fill="white"/>
<path d="M355.793 202.486V139.213L336.221 133.076C335.522 131.202 334.753 129.357 333.943 127.484L343.463 109.31L298.727 64.5736L280.553 74.108C278.722 73.2832 276.89 72.5143 274.961 71.8013L268.824 52.2293H205.508L199.385 71.8013C197.498 72.5143 195.666 73.2832 193.793 74.108L175.619 64.5736L130.883 109.31L140.417 127.484C139.593 129.315 138.824 131.146 138.125 133.076L118.553 139.213V202.486L138.125 208.61C138.838 210.483 139.607 212.328 140.417 214.202L130.883 232.376L175.619 277.112L193.793 267.577C195.61 268.402 197.442 269.171 199.385 269.884L205.508 289.456H268.782L274.919 269.884C276.792 269.171 278.624 268.402 280.511 267.577L298.685 277.112L343.421 232.376L333.887 214.202C334.698 212.384 335.48 210.539 336.179 208.61L355.793 202.486ZM284.258 170.836C284.258 180.148 281.496 189.251 276.322 196.994C271.149 204.737 263.795 210.772 255.192 214.336C246.588 217.9 237.121 218.832 227.987 217.016C218.854 215.199 210.464 210.714 203.879 204.129C197.294 197.545 192.81 189.155 190.993 180.021C189.176 170.888 190.109 161.421 193.673 152.817C197.236 144.214 203.271 136.86 211.014 131.686C218.757 126.512 227.861 123.751 237.173 123.751C249.66 123.755 261.634 128.717 270.463 137.546C279.292 146.375 284.254 158.349 284.258 170.836Z" fill="#407BFF"/>
<path opacity="0.5" d="M355.793 202.486V139.213L336.221 133.076C335.522 131.202 334.753 129.357 333.943 127.484L343.463 109.31L298.727 64.5736L280.553 74.108C278.722 73.2832 276.89 72.5143 274.961 71.8013L268.824 52.2293H205.508L199.385 71.8013C197.498 72.5143 195.666 73.2832 193.793 74.108L175.619 64.5736L130.883 109.31L140.417 127.484C139.593 129.315 138.824 131.146 138.125 133.076L118.553 139.213V202.486L138.125 208.61C138.838 210.483 139.607 212.328 140.417 214.202L130.883 232.376L175.619 277.112L193.793 267.577C195.61 268.402 197.442 269.171 199.385 269.884L205.508 289.456H268.782L274.919 269.884C276.792 269.171 278.624 268.402 280.511 267.577L298.685 277.112L343.421 232.376L333.887 214.202C334.698 212.384 335.48 210.539 336.179 208.61L355.793 202.486ZM284.258 170.836C284.258 180.148 281.496 189.251 276.322 196.994C271.149 204.737 263.795 210.772 255.192 214.336C246.588 217.9 237.121 218.832 227.987 217.016C218.854 215.199 210.464 210.714 203.879 204.129C197.294 197.545 192.81 189.155 190.993 180.021C189.176 170.888 190.109 161.421 193.673 152.817C197.236 144.214 203.271 136.86 211.014 131.686C218.757 126.512 227.861 123.751 237.173 123.751C249.66 123.755 261.634 128.717 270.463 137.546C279.292 146.375 284.254 158.349 284.258 170.836Z" fill="white"/>
<path d="M265.731 285.625H208.622C208.547 285.625 208.473 285.601 208.413 285.555C208.352 285.51 208.308 285.446 208.287 285.374L202.695 267.731C202.667 267.642 202.676 267.546 202.719 267.463C202.762 267.38 202.836 267.318 202.925 267.291C203.014 267.263 203.111 267.271 203.193 267.315C203.276 267.358 203.338 267.432 203.366 267.521L208.804 284.926H265.395L271.211 266.557C271.227 266.506 271.255 266.46 271.291 266.422C271.327 266.383 271.371 266.353 271.42 266.333L273.336 265.62C274.957 265.005 276.677 264.292 278.62 263.425L280.479 262.586C280.565 262.549 280.661 262.548 280.748 262.582C280.834 262.616 280.904 262.683 280.941 262.768C280.978 262.853 280.98 262.95 280.946 263.036C280.911 263.123 280.844 263.192 280.759 263.229L278.9 264.054C276.957 264.935 275.209 265.648 273.587 266.263L271.826 266.934L266.066 285.374C266.043 285.445 265.998 285.508 265.938 285.553C265.878 285.598 265.806 285.623 265.731 285.625ZM297.885 272.302C297.792 272.3 297.703 272.265 297.633 272.205C297.599 272.172 297.572 272.133 297.554 272.09C297.535 272.046 297.526 272 297.526 271.953C297.526 271.906 297.535 271.859 297.554 271.816C297.572 271.773 297.599 271.734 297.633 271.701L337.839 231.509L328.906 214.453C328.882 214.406 328.869 214.353 328.869 214.299C328.869 214.246 328.882 214.193 328.906 214.146L329.745 212.286C330.584 210.399 331.297 208.665 331.926 207.016L332.639 205.101C332.659 205.051 332.689 205.007 332.727 204.971C332.766 204.935 332.812 204.907 332.863 204.891L351.246 199.145V142.596L333.072 136.92C333.022 136.913 332.974 136.895 332.932 136.867C332.889 136.839 332.853 136.802 332.827 136.759C332.8 136.716 332.783 136.668 332.776 136.618C332.77 136.567 332.775 136.516 332.79 136.468C332.805 136.42 332.831 136.375 332.865 136.338C332.9 136.301 332.942 136.271 332.989 136.252C333.035 136.232 333.086 136.223 333.136 136.225C333.187 136.227 333.237 136.24 333.282 136.263L351.652 141.995C351.721 142.02 351.78 142.066 351.823 142.126C351.865 142.186 351.888 142.257 351.889 142.33V199.439C351.89 199.513 351.868 199.585 351.825 199.645C351.782 199.705 351.722 199.751 351.652 199.774L333.24 205.506L332.583 207.267C331.954 208.931 331.185 210.665 330.374 212.58L329.619 214.285L338.58 231.411C338.625 231.469 338.649 231.54 338.649 231.614C338.649 231.687 338.625 231.758 338.58 231.816L298.206 272.205C298.12 272.276 298.01 272.311 297.899 272.302H297.885ZM176.44 272.302C176.348 272.3 176.259 272.265 176.189 272.205L135.814 231.816C135.774 231.756 135.753 231.686 135.753 231.614C135.753 231.541 135.774 231.471 135.814 231.411L144.859 214.132C144.904 214.05 144.978 213.989 145.067 213.96C145.155 213.932 145.251 213.938 145.335 213.978C145.375 214 145.411 214.03 145.44 214.065C145.469 214.101 145.491 214.142 145.503 214.186C145.516 214.231 145.521 214.277 145.516 214.323C145.511 214.369 145.497 214.413 145.475 214.453L136.555 231.509L176.748 271.701C176.782 271.734 176.809 271.773 176.827 271.816C176.845 271.859 176.855 271.906 176.855 271.953C176.855 272 176.845 272.046 176.827 272.09C176.809 272.133 176.782 272.172 176.748 272.205C176.708 272.24 176.662 272.267 176.611 272.284C176.561 272.301 176.507 272.307 176.454 272.302H176.44ZM200.206 266.025H200.08C198.682 265.48 197.159 264.837 195.467 264.082C195.418 264.07 195.371 264.047 195.332 264.015C195.292 263.983 195.26 263.942 195.238 263.896C195.215 263.851 195.203 263.8 195.202 263.749C195.201 263.698 195.211 263.648 195.232 263.601C195.253 263.554 195.284 263.513 195.322 263.479C195.361 263.446 195.406 263.421 195.455 263.407C195.504 263.393 195.556 263.39 195.606 263.398C195.656 263.406 195.704 263.425 195.747 263.453C197.424 264.194 198.92 264.851 200.332 265.368C200.376 265.385 200.415 265.411 200.449 265.443C200.482 265.476 200.509 265.515 200.527 265.558C200.546 265.601 200.555 265.647 200.555 265.694C200.555 265.74 200.546 265.787 200.528 265.83C200.498 265.896 200.448 265.95 200.386 265.985C200.323 266.021 200.25 266.035 200.178 266.025H200.206ZM237.197 222.492C223.496 222.466 210.364 217.005 200.685 207.307C191.005 197.609 185.569 184.467 185.569 170.766C185.569 170.673 185.606 170.584 185.672 170.519C185.737 170.453 185.826 170.416 185.919 170.416C186.011 170.416 186.1 170.453 186.166 170.519C186.231 170.584 186.268 170.673 186.268 170.766C186.268 180.839 189.255 190.685 194.851 199.06C200.448 207.436 208.402 213.963 217.708 217.818C227.014 221.673 237.254 222.681 247.133 220.716C257.012 218.751 266.087 213.901 273.21 206.778C280.332 199.655 285.183 190.581 287.148 180.701C289.113 170.822 288.105 160.582 284.25 151.276C280.395 141.97 273.867 134.016 265.492 128.42C257.117 122.823 247.27 119.837 237.197 119.837C237.105 119.837 237.016 119.8 236.95 119.734C236.885 119.669 236.848 119.58 236.848 119.487C236.848 119.394 236.885 119.305 236.95 119.24C237.016 119.174 237.105 119.138 237.197 119.138C250.894 119.138 264.029 124.578 273.714 134.263C283.399 143.948 288.84 157.083 288.84 170.78C288.84 184.476 283.399 197.611 273.714 207.296C264.029 216.981 250.894 222.422 237.197 222.422V222.492ZM142.133 207.491C142.06 207.488 141.99 207.464 141.93 207.422C141.871 207.38 141.825 207.321 141.798 207.254L141.141 205.506L122.673 199.732C122.603 199.709 122.543 199.663 122.5 199.603C122.457 199.543 122.435 199.471 122.436 199.397V142.288C122.437 142.215 122.46 142.144 122.502 142.084C122.545 142.024 122.604 141.978 122.673 141.953L140.33 136.445C140.419 136.418 140.515 136.426 140.598 136.467C140.681 136.509 140.746 136.581 140.777 136.668C140.8 136.759 140.789 136.855 140.745 136.938C140.701 137.021 140.628 137.084 140.54 137.116L123.093 142.596V199.187L141.476 204.933C141.526 204.948 141.57 204.976 141.607 205.012C141.643 205.049 141.67 205.093 141.686 205.143L142.413 207.058C142.445 207.143 142.443 207.238 142.406 207.321C142.37 207.405 142.302 207.471 142.217 207.505L142.133 207.491ZM142.133 134.795H142.008C141.922 134.758 141.854 134.689 141.817 134.604C141.781 134.518 141.779 134.421 141.812 134.334C142.483 132.544 143.21 130.839 143.979 129.105C144.018 129.022 144.089 128.958 144.175 128.927C144.261 128.895 144.357 128.899 144.44 128.938C144.482 128.956 144.521 128.982 144.553 129.015C144.585 129.048 144.61 129.088 144.627 129.13C144.644 129.173 144.652 129.219 144.651 129.265C144.65 129.311 144.64 129.357 144.622 129.399C143.839 131.104 143.14 132.81 142.469 134.585C142.444 134.662 142.396 134.727 142.33 134.773C142.264 134.818 142.185 134.841 142.105 134.837L142.133 134.795ZM329.731 126.813H329.563C329.523 126.791 329.487 126.761 329.458 126.725C329.429 126.689 329.408 126.648 329.395 126.604C329.382 126.56 329.377 126.514 329.382 126.468C329.387 126.422 329.401 126.378 329.423 126.337L337.811 110.19L331.101 103.452C331.061 103.422 331.028 103.384 331.004 103.34C330.98 103.296 330.966 103.247 330.962 103.197C330.959 103.147 330.966 103.097 330.983 103.05C331.001 103.003 331.028 102.961 331.064 102.925C331.099 102.89 331.142 102.862 331.189 102.845C331.235 102.827 331.286 102.82 331.336 102.824C331.385 102.827 331.434 102.842 331.478 102.866C331.522 102.89 331.56 102.923 331.59 102.963L338.58 109.953C338.625 110.011 338.649 110.082 338.649 110.155C338.649 110.229 338.625 110.3 338.58 110.358L330.011 126.729C329.974 126.774 329.926 126.809 329.873 126.831C329.819 126.852 329.761 126.861 329.703 126.855L329.731 126.813ZM136.066 110.442C135.973 110.443 135.883 110.408 135.814 110.344C135.754 110.277 135.72 110.19 135.72 110.099C135.72 110.009 135.754 109.922 135.814 109.855L176.147 69.4946C176.204 69.448 176.276 69.4226 176.349 69.4226C176.423 69.4226 176.495 69.448 176.552 69.4946L193.678 78.4558L195.383 77.7008C197.033 76.9599 198.543 76.3028 199.997 75.7576C200.04 75.7395 200.086 75.7302 200.133 75.7303C200.179 75.7303 200.226 75.7398 200.269 75.758C200.312 75.7763 200.351 75.803 200.383 75.8365C200.416 75.87 200.441 75.9098 200.458 75.9533C200.489 76.0405 200.485 76.1365 200.446 76.2204C200.406 76.3043 200.335 76.3692 200.248 76.4007C198.85 76.9739 197.312 77.603 195.677 78.3299L193.817 79.1687C193.769 79.1895 193.717 79.2002 193.664 79.2002C193.611 79.2002 193.559 79.1895 193.51 79.1687L176.454 70.2355L136.318 110.442C136.237 110.475 136.147 110.475 136.066 110.442ZM325.523 97.6922C325.43 97.6931 325.34 97.6581 325.271 97.5944L297.773 70.1656L280.717 79.0988C280.672 79.1233 280.622 79.1361 280.57 79.1361C280.519 79.1361 280.469 79.1233 280.424 79.0988L278.564 78.26C276.649 77.4073 274.915 76.6943 273.28 76.0652L271.365 75.3522C271.315 75.3324 271.271 75.3022 271.235 75.2636C271.199 75.2249 271.171 75.1788 271.155 75.1285L265.409 56.7588H208.874L203.925 72.5702C203.912 72.614 203.891 72.6549 203.862 72.6901C203.833 72.7254 203.797 72.7544 203.756 72.7754C203.716 72.7963 203.672 72.8088 203.626 72.8119C203.58 72.8151 203.535 72.809 203.492 72.7939C203.405 72.765 203.333 72.7036 203.292 72.6226C203.25 72.5417 203.241 72.4476 203.268 72.3605L208.301 56.3114C208.324 56.2414 208.37 56.1807 208.43 56.138C208.49 56.0953 208.562 56.0728 208.636 56.0738H265.745C265.818 56.0749 265.889 56.0982 265.949 56.1406C266.009 56.183 266.055 56.2426 266.08 56.3114L271.84 74.765L273.601 75.4361C275.251 76.0512 276.984 76.8341 278.914 77.6449L280.619 78.3998L297.773 69.4387C297.831 69.3944 297.902 69.3705 297.975 69.3705C298.049 69.3705 298.12 69.3944 298.178 69.4387L325.733 97.1191C325.767 97.1517 325.793 97.1907 325.812 97.234C325.83 97.2772 325.84 97.3237 325.84 97.3707C325.84 97.4177 325.83 97.4642 325.812 97.5074C325.793 97.5506 325.767 97.5897 325.733 97.6223C325.675 97.6769 325.602 97.7113 325.523 97.7202V97.6922Z" fill="#FAFAFA"/>
<path d="M438.045 182.285C442.421 187.877 446.517 193.469 450.516 199.243C454.514 205.017 458.317 210.916 461.909 217.068C462.818 218.591 463.685 220.185 464.566 221.751C465.836 224.123 466.585 226.74 466.76 229.426C466.989 233.502 466.593 237.59 465.586 241.546C463.846 248.661 461.206 255.525 457.729 261.971L450.53 259.175C451.959 252.721 452.991 246.184 453.619 239.603C453.898 236.761 453.804 233.894 453.34 231.075C453.225 230.293 452.934 229.547 452.487 228.895C451.564 227.497 450.669 226.099 449.691 224.701C445.902 219.109 441.89 213.642 437.85 208.148L425.701 191.68L438.045 182.285Z" fill="#FF8B7B"/>
<path d="M450.029 258.364L446.311 265.019L459.284 266.934C459.284 266.934 460.682 261.342 457.425 257.484L450.029 258.364Z" fill="#FF8B7B"/>
<path d="M444.355 273.868L455.162 274.959L459.286 266.934L446.313 265.019L444.355 273.868Z" fill="#FF8B7B"/>
<path d="M479.511 313.571L483.37 293.035C483.818 290.652 485.192 288.545 487.192 287.174C489.191 285.804 491.653 285.282 494.037 285.723L526.428 291.791C524.495 285.319 521.059 279.397 516.399 274.507C511.74 269.618 505.989 265.901 499.618 263.66C493.247 261.418 486.435 260.716 479.741 261.611C473.046 262.505 466.659 264.972 461.1 268.807L314.142 181.824C314.905 172.627 312.677 163.431 307.788 155.604C302.899 147.777 295.612 141.74 287.012 138.392C278.413 135.044 268.962 134.565 260.068 137.025C251.174 139.486 243.313 144.755 237.657 152.047L270.049 158.114C272.428 158.572 274.53 159.951 275.897 161.952C277.264 163.952 277.785 166.412 277.347 168.795L273.488 189.345C273.037 191.726 271.661 193.831 269.663 195.201C267.664 196.571 265.205 197.094 262.821 196.657L230.43 190.575C232.371 197.086 235.833 203.042 240.532 207.95C245.23 212.857 251.029 216.576 257.45 218.799C263.87 221.021 270.727 221.684 277.454 220.731C284.181 219.778 290.585 217.238 296.136 213.321L442.8 300.137C441.954 309.353 444.118 318.595 448.966 326.477C453.815 334.36 461.088 340.459 469.695 343.86C478.302 347.262 487.78 347.782 496.708 345.343C505.635 342.904 513.532 337.638 519.215 330.333L486.823 324.252C484.441 323.797 482.336 322.419 480.966 320.419C479.596 318.418 479.073 315.956 479.511 313.571Z" fill="#407BFF"/>
<path d="M442.912 268.279L323.76 197.757C321.594 196.475 318.799 197.191 317.517 199.357L312.66 207.562C311.378 209.728 312.095 212.523 314.261 213.805L433.413 284.328C435.579 285.61 438.374 284.893 439.656 282.727L444.513 274.522C445.795 272.356 445.078 269.561 442.912 268.279Z" fill="#407BFF"/>
<path opacity="0.2" d="M442.912 268.279L323.76 197.757C321.594 196.475 318.799 197.191 317.517 199.357L312.66 207.562C311.378 209.728 312.095 212.523 314.261 213.805L433.413 284.328C435.579 285.61 438.374 284.893 439.656 282.727L444.513 274.522C445.795 272.356 445.078 269.561 442.912 268.279Z" fill="white"/>
<path d="M388.278 138.835C388.138 139.66 387.607 140.233 387.076 140.233C386.545 140.233 386.209 139.409 386.335 138.598C386.461 137.787 387.006 137.2 387.537 137.27C388.069 137.34 388.404 138.025 388.278 138.835Z" fill="#263238"/>
<path d="M387.677 140.261C386.309 142.61 384.625 144.76 382.672 146.65C383.166 147.146 383.762 147.528 384.419 147.769C385.076 148.011 385.777 148.106 386.474 148.048L387.677 140.261Z" fill="#FF5652"/>
<path d="M391.953 134.767C391.89 134.768 391.829 134.756 391.771 134.732C391.713 134.708 391.661 134.672 391.617 134.627C391.197 134.185 390.677 133.849 390.101 133.647C389.525 133.445 388.909 133.384 388.304 133.467C388.241 133.481 388.175 133.483 388.111 133.472C388.047 133.461 387.986 133.437 387.931 133.401C387.877 133.366 387.83 133.321 387.793 133.267C387.756 133.214 387.73 133.153 387.717 133.09C387.703 133.027 387.701 132.962 387.713 132.899C387.724 132.836 387.748 132.776 387.783 132.723C387.819 132.669 387.864 132.623 387.918 132.588C387.971 132.552 388.031 132.528 388.094 132.516C388.854 132.396 389.632 132.46 390.362 132.703C391.092 132.947 391.753 133.362 392.288 133.914C392.376 134.01 392.424 134.135 392.424 134.264C392.424 134.393 392.376 134.518 392.288 134.613C392.198 134.702 392.079 134.757 391.953 134.767Z" fill="#263238"/>
<path d="M415.583 147.853C414.185 155.374 412.647 169.144 417.904 174.149C417.904 174.149 415.849 181.768 401.883 181.768C386.505 181.768 394.543 174.149 394.543 174.149C402.931 172.15 402.708 165.929 401.254 160.169L415.583 147.853Z" fill="#FF8B7B"/>
<path d="M424.988 179.797C424.818 179.549 424.691 179.275 424.611 178.986C423.436 174.526 418.501 171.045 412.099 170.864C405.346 170.696 397.727 171.507 393.226 175.225C391.24 176.861 393.435 179.252 393.435 179.252L424.988 179.797Z" fill="#407BFF"/>
<path opacity="0.5" d="M424.988 179.797C424.818 179.549 424.691 179.275 424.611 178.986C423.436 174.526 418.501 171.045 412.099 170.864C405.346 170.696 397.727 171.507 393.226 175.225C391.24 176.861 393.435 179.252 393.435 179.252L424.988 179.797Z" fill="white"/>
<path d="M474.351 461.102H474.253C474.048 461.074 473.856 460.982 473.706 460.839C473.555 460.696 473.453 460.509 473.414 460.306C473.366 460.147 473.351 459.981 473.373 459.816C473.395 459.652 473.452 459.495 473.54 459.355C474.323 458.027 477.734 457.328 477.832 457.3C477.879 457.291 477.928 457.295 477.972 457.312C478.017 457.329 478.055 457.359 478.084 457.398C478.107 457.438 478.119 457.484 478.119 457.531C478.119 457.577 478.107 457.623 478.084 457.663C477.567 458.544 475.651 461.102 474.351 461.102ZM477.357 457.901C476.238 458.195 474.421 458.796 473.96 459.593C473.916 459.677 473.893 459.77 473.893 459.865C473.893 459.96 473.916 460.054 473.96 460.138C474.086 460.571 474.309 460.599 474.365 460.613C474.994 460.697 476.476 459.187 477.357 457.901Z" fill="#407BFF"/>
<path d="M476.212 457.957C474.939 457.957 473.513 457.719 473.08 457.104C472.978 456.952 472.931 456.769 472.946 456.586C472.961 456.403 473.038 456.231 473.164 456.098C473.277 455.951 473.418 455.829 473.579 455.738C473.74 455.647 473.917 455.589 474.101 455.566C475.638 455.399 477.945 457.258 478.043 457.342C478.079 457.369 478.106 457.405 478.122 457.447C478.137 457.489 478.141 457.534 478.132 457.578C478.124 457.622 478.103 457.662 478.072 457.694C478.041 457.727 478.002 457.75 477.959 457.761C477.388 457.906 476.8 457.971 476.212 457.957ZM474.338 456.042H474.157C474.038 456.049 473.922 456.083 473.818 456.141C473.714 456.199 473.624 456.28 473.555 456.377C473.36 456.629 473.444 456.755 473.486 456.797C473.877 457.37 476.016 457.593 477.316 457.384C476.454 456.689 475.429 456.227 474.338 456.042Z" fill="#407BFF"/>
<path d="M372.817 495.046C371.503 495.046 370.231 494.864 369.797 494.277C369.688 494.121 369.629 493.936 369.629 493.746C369.629 493.555 369.688 493.37 369.797 493.214C369.883 493.071 369.996 492.947 370.13 492.848C370.265 492.75 370.418 492.679 370.58 492.641C372.286 492.18 375.879 494.221 376.032 494.319C376.075 494.344 376.108 494.382 376.128 494.427C376.148 494.472 376.154 494.522 376.144 494.57C376.134 494.619 376.11 494.663 376.076 494.698C376.041 494.732 375.997 494.756 375.948 494.766C374.914 494.948 373.867 495.041 372.817 495.046ZM371.181 493.061C371.028 493.038 370.873 493.038 370.72 493.061C370.621 493.08 370.528 493.12 370.446 493.178C370.365 493.235 370.296 493.31 370.245 493.396C370.063 493.704 370.133 493.857 370.245 493.941C370.72 494.598 373.32 494.612 375.235 494.347C373.981 493.658 372.603 493.222 371.181 493.061Z" fill="#407BFF"/>
<path d="M375.923 494.766H375.825C374.58 494.207 372.12 491.97 372.316 490.824C372.316 490.544 372.553 490.209 373.224 490.139C373.474 490.108 373.727 490.13 373.967 490.202C374.208 490.274 374.431 490.396 374.622 490.558C375.937 491.635 376.202 494.403 376.216 494.515C376.222 494.557 376.215 494.601 376.198 494.64C376.181 494.679 376.153 494.713 376.118 494.738C376.059 494.772 375.989 494.782 375.923 494.766ZM373.42 490.572H373.266C372.833 490.572 372.805 490.782 372.791 490.838C372.679 491.537 374.357 493.284 375.587 494.039C375.459 492.867 374.97 491.763 374.189 490.88C373.97 490.705 373.7 490.607 373.42 490.6V490.572Z" fill="#407BFF"/>
<path d="M387.214 494.528H376.939L375.918 470.749H386.193L387.214 494.528Z" fill="#FF8B7B"/>
<path d="M487.076 450.226L478.744 456.237L459.088 441.083L467.42 435.086L487.076 450.226Z" fill="#FF8B7B"/>
<path d="M477.554 456.153L485.55 447.765C485.69 447.619 485.877 447.524 486.078 447.499C486.279 447.474 486.483 447.518 486.655 447.626L494.651 452.477C494.843 452.598 495.005 452.76 495.126 452.952C495.247 453.143 495.323 453.36 495.35 453.585C495.377 453.809 495.353 454.038 495.281 454.252C495.208 454.467 495.089 454.663 494.931 454.825C492.135 457.691 490.555 458.935 487.046 462.598C484.879 464.849 479.008 472.762 476.016 475.879C473.024 478.997 469.571 476.438 470.508 474.901C474.702 467.995 476.743 461.144 476.855 457.733C476.895 457.141 477.143 456.582 477.554 456.153Z" fill="#263238"/>
<path d="M377.009 493.34H388.193C388.397 493.339 388.596 493.407 388.757 493.534C388.917 493.661 389.029 493.84 389.074 494.039L391.101 503.168C391.149 503.388 391.147 503.617 391.095 503.836C391.043 504.056 390.942 504.26 390.799 504.435C390.657 504.61 390.476 504.75 390.272 504.846C390.068 504.941 389.844 504.989 389.619 504.986C385.579 504.986 379.735 504.692 374.646 504.692C368.691 504.692 363.56 505.014 356.584 505.014C352.39 505.014 351.202 500.75 352.963 500.358C361.002 498.611 367.558 498.415 374.506 494.137C375.249 493.642 376.117 493.366 377.009 493.34Z" fill="#263238"/>
<path d="M423.678 195.832C425.076 198.418 426.655 200.921 428.179 203.255C430.808 207.295 433.352 210.79 435.169 213.195C436.805 215.362 437.853 216.634 437.853 216.634L458.544 202.528C458.544 202.528 445.962 178.035 436.274 176.47C426.306 174.89 417.177 184.228 423.678 195.832Z" fill="#407BFF"/>
<path opacity="0.5" d="M423.678 195.832C425.076 198.418 426.655 200.921 428.179 203.255C430.808 207.295 433.352 210.79 435.169 213.195C436.805 215.362 437.853 216.634 437.853 216.634L458.544 202.528C458.544 202.528 445.962 178.035 436.274 176.47C426.306 174.89 417.177 184.228 423.678 195.832Z" fill="black"/>
<path d="M428.178 203.255C430.806 207.295 433.35 210.79 435.168 213.195C434.958 208.386 433.965 200.613 430.233 194.685C428.877 196.028 428.332 199.495 428.178 203.255Z" fill="#407BFF"/>
<path opacity="0.6" d="M428.178 203.255C430.806 207.295 433.35 210.79 435.168 213.195C434.958 208.386 433.965 200.613 430.233 194.685C428.877 196.028 428.332 199.495 428.178 203.255Z" fill="black"/>
<path d="M373.697 210.483C373.697 213.978 373.781 217.822 373.977 222.058C374.48 233.578 375.738 247.935 378.171 265.774H433.098C433.476 257.386 428.177 216.201 436.314 176.47C430.237 175.301 424.092 174.526 417.916 174.149C410.14 173.701 402.345 173.701 394.569 174.149C389.24 174.676 383.959 175.61 378.772 176.945C378.772 176.945 373.683 182.719 373.697 210.483Z" fill="#407BFF"/>
<path opacity="0.5" d="M373.697 210.483C373.697 213.978 373.781 217.822 373.977 222.058C374.48 233.578 375.738 247.935 378.171 265.774H433.098C433.476 257.386 428.177 216.201 436.314 176.47C430.237 175.301 424.092 174.526 417.916 174.149C410.14 173.701 402.345 173.701 394.569 174.149C389.24 174.676 383.959 175.61 378.772 176.945C378.772 176.945 373.683 182.719 373.697 210.483Z" fill="black"/>
<path d="M373.697 210.483C373.697 213.978 373.781 217.822 373.977 222.058C380.422 215.767 380.855 202.92 380.855 202.92L373.697 210.483Z" fill="#407BFF"/>
<path opacity="0.6" d="M373.697 210.483C373.697 213.978 373.781 217.822 373.977 222.058C380.422 215.767 380.855 202.92 380.855 202.92L373.697 210.483Z" fill="black"/>
<path d="M385.147 194.532C384.09 196.3 382.923 197.999 381.652 199.62C380.491 201.13 379.331 202.556 378.143 203.968C375.78 206.764 373.25 209.462 370.677 212.077C365.407 217.427 359.571 222.19 353.272 226.28C351.577 227.341 349.827 228.312 348.03 229.188L347.317 229.524L346.967 229.691L346.534 229.873C345.843 230.165 345.133 230.408 344.409 230.6L343.388 230.866L342.41 231.034C341.785 231.142 341.155 231.212 340.522 231.243C336.314 231.382 332.114 230.791 328.108 229.496C321.027 227.292 314.278 224.137 308.047 220.115L311.36 213.125C317.718 215.028 324.196 216.504 330.75 217.543C333.524 218.009 336.353 218.046 339.138 217.655C339.377 217.616 339.611 217.555 339.837 217.473L340.145 217.389L340.369 217.291C340.55 217.291 340.592 217.151 340.704 217.109L341.543 216.62C342.83 215.872 344.076 215.055 345.276 214.174C350.435 210.292 355.231 205.95 359.605 201.2C361.884 198.81 364.079 196.307 366.218 193.819C367.28 192.561 368.315 191.302 369.279 190.03C370.244 188.758 371.236 187.458 371.81 186.563L385.147 194.532Z" fill="#FF8B7B"/>
<path d="M312.87 215.012L306.048 206.904L301.406 218.759C301.406 218.759 307.292 221.555 311.877 219.933L312.87 215.012Z" fill="#FF8B7B"/>
<path d="M296.04 205.129L294.139 214.593L301.408 218.745L306.05 206.89L296.04 205.129Z" fill="#FF8B7B"/>
<path d="M393.381 188.968C392.164 198.754 369.964 219.374 369.964 219.374L349.973 203.521C354.998 196.093 360.872 189.276 367.476 183.208C381.959 170.654 394.848 177.28 393.381 188.968Z" fill="#407BFF"/>
<path opacity="0.5" d="M393.381 188.968C392.164 198.754 369.964 219.374 369.964 219.374L349.973 203.521C354.998 196.093 360.872 189.276 367.476 183.208C381.959 170.654 394.848 177.28 393.381 188.968Z" fill="black"/>
<path d="M376.061 255.023C396.01 255.023 400.567 232.459 401.616 222.771C399.097 206.386 393.26 190.688 384.463 176.637C384.354 176.466 384.289 176.27 384.274 176.067C384.259 175.865 384.293 175.661 384.375 175.475C384.456 175.289 384.582 175.125 384.741 174.999C384.9 174.873 385.088 174.787 385.287 174.75L389.663 173.939C389.912 173.898 390.168 173.931 390.398 174.032C390.629 174.134 390.826 174.301 390.963 174.512C402.972 193.735 406.9 210.036 408.173 218.424H411.751C415.414 210.455 423.481 192.295 422.824 175.281C422.812 175.099 422.84 174.916 422.908 174.746C422.975 174.576 423.079 174.423 423.213 174.299C423.347 174.174 423.507 174.081 423.682 174.026C423.856 173.971 424.041 173.956 424.222 173.981L428.919 174.442C429.221 174.463 429.505 174.594 429.717 174.811C429.928 175.027 430.052 175.314 430.065 175.617C430.75 192.015 421.482 214.761 417.917 221.988C419.133 248.746 434.022 253.374 434.022 253.374C434.388 260.027 434.093 266.7 433.141 273.295C401.616 278.412 385.902 275.294 376.913 271.576C377.612 264.851 376.354 260.14 376.061 255.023Z" fill="#407BFF"/>
<path opacity="0.3" d="M376.061 255.023C396.01 255.023 400.567 232.459 401.616 222.771C399.097 206.386 393.26 190.688 384.463 176.637C384.354 176.466 384.289 176.27 384.274 176.067C384.259 175.865 384.293 175.661 384.375 175.475C384.456 175.289 384.582 175.125 384.741 174.999C384.9 174.873 385.088 174.787 385.287 174.75L389.663 173.939C389.912 173.898 390.168 173.931 390.398 174.032C390.629 174.134 390.826 174.301 390.963 174.512C402.972 193.735 406.9 210.036 408.173 218.424H411.751C415.414 210.455 423.481 192.295 422.824 175.281C422.812 175.099 422.84 174.916 422.908 174.746C422.975 174.576 423.079 174.423 423.213 174.299C423.347 174.174 423.507 174.081 423.682 174.026C423.856 173.971 424.041 173.956 424.222 173.981L428.919 174.442C429.221 174.463 429.505 174.594 429.717 174.811C429.928 175.027 430.052 175.314 430.065 175.617C430.75 192.015 421.482 214.761 417.917 221.988C419.133 248.746 434.022 253.374 434.022 253.374C434.388 260.027 434.093 266.7 433.141 273.295C401.616 278.412 385.902 275.294 376.913 271.576C377.612 264.851 376.354 260.14 376.061 255.023Z" fill="black"/>
<path d="M375.918 470.749L376.449 483.009H386.725L386.193 470.749H375.918Z" fill="#FF5652"/>
<path d="M467.436 435.086L459.104 441.097L469.239 448.898L477.571 442.887L467.436 435.086Z" fill="#FF5652"/>
<path d="M415.847 141.38C413.652 151.334 412.87 157.275 406.984 161.637C398.135 168.207 386.447 161.637 385.623 151.25C384.882 141.883 388.586 127.176 399.057 124.688C401.362 124.154 403.764 124.215 406.039 124.863C408.314 125.511 410.388 126.726 412.065 128.394C413.743 130.061 414.97 132.128 415.631 134.399C416.293 136.67 416.367 139.072 415.847 141.38Z" fill="#FF8B7B"/>
<path d="M424.725 125.932C433.463 126.17 429.87 130.769 425.494 133.299C425.494 133.299 430.541 135.718 427.941 141.492C423.998 150.257 416.449 159.889 408.746 159.358C399.156 158.701 396.43 148.272 396.779 137.983C391.719 133.215 390.866 130.587 390.083 124.855C388.503 113.49 395.633 107.241 424.725 125.932Z" fill="#263238"/>
<path d="M413.469 106.779C419.451 108.314 424.578 112.161 427.724 117.475C430.87 122.789 431.777 129.134 430.245 135.117L385.104 123.597C385.86 120.63 387.194 117.84 389.03 115.388C390.865 112.937 393.166 110.871 395.8 109.309C398.435 107.747 401.351 106.72 404.383 106.286C407.415 105.852 410.502 106.019 413.469 106.779Z" fill="#407BFF"/>
<path opacity="0.5" d="M413.469 106.779C419.451 108.314 424.578 112.161 427.724 117.475C430.87 122.789 431.777 129.134 430.245 135.117L385.104 123.597C385.86 120.63 387.194 117.84 389.03 115.388C390.865 112.937 393.166 110.871 395.8 109.309C398.435 107.747 401.351 106.72 404.383 106.286C407.415 105.852 410.502 106.019 413.469 106.779Z" fill="white"/>
<path d="M422.392 135.145C422.08 135.149 421.771 135.081 421.49 134.946C421.208 134.81 420.962 134.611 420.771 134.365C420.58 134.118 420.449 133.83 420.388 133.524C420.327 133.218 420.338 132.901 420.421 132.6C421.049 130.061 421.135 127.419 420.675 124.844C420.215 122.269 419.219 119.82 417.751 117.656C414.609 112.929 409.803 109.56 404.288 108.219C403.763 108.086 403.313 107.749 403.037 107.284C402.76 106.819 402.68 106.262 402.813 105.738C402.947 105.213 403.283 104.763 403.748 104.486C404.214 104.21 404.77 104.129 405.294 104.263C411.802 105.862 417.468 109.855 421.162 115.447C422.94 118.082 424.146 121.062 424.7 124.192C425.253 127.323 425.144 130.535 424.377 133.621C424.262 134.059 424.005 134.447 423.646 134.723C423.286 134.999 422.845 135.147 422.392 135.145Z" fill="#407BFF"/>
<path opacity="0.3" d="M422.392 135.145C422.08 135.149 421.771 135.081 421.49 134.946C421.208 134.81 420.962 134.611 420.771 134.365C420.58 134.118 420.449 133.83 420.388 133.524C420.327 133.218 420.338 132.901 420.421 132.6C421.049 130.061 421.135 127.419 420.675 124.844C420.215 122.269 419.219 119.82 417.751 117.656C414.609 112.929 409.803 109.56 404.288 108.219C403.763 108.086 403.313 107.749 403.037 107.284C402.76 106.819 402.68 106.262 402.813 105.738C402.947 105.213 403.283 104.763 403.748 104.486C404.214 104.21 404.77 104.129 405.294 104.263C411.802 105.862 417.468 109.855 421.162 115.447C422.94 118.082 424.146 121.062 424.7 124.192C425.253 127.323 425.144 130.535 424.377 133.621C424.262 134.059 424.005 134.447 423.646 134.723C423.286 134.999 422.845 135.147 422.392 135.145Z" fill="white"/>
<path d="M378.855 124.198L431.979 137.759C432.532 137.899 433.117 137.814 433.607 137.523C434.097 137.232 434.452 136.759 434.594 136.207C434.734 135.653 434.65 135.066 434.359 134.573C434.068 134.081 433.595 133.724 433.042 133.579L379.918 120.018C379.362 119.878 378.773 119.965 378.28 120.258C377.788 120.552 377.432 121.028 377.29 121.584C377.221 121.859 377.206 122.144 377.248 122.424C377.289 122.704 377.385 122.973 377.531 123.216C377.676 123.459 377.868 123.67 378.095 123.839C378.323 124.008 378.581 124.13 378.855 124.198Z" fill="#407BFF"/>
<path opacity="0.3" d="M378.855 124.198L431.979 137.759C432.532 137.899 433.117 137.814 433.607 137.523C434.097 137.232 434.452 136.759 434.594 136.207C434.734 135.653 434.65 135.066 434.359 134.573C434.068 134.081 433.595 133.724 433.042 133.579L379.918 120.018C379.362 119.878 378.773 119.965 378.28 120.258C377.788 120.552 377.432 121.028 377.29 121.584C377.221 121.859 377.206 122.144 377.248 122.424C377.289 122.704 377.385 122.973 377.531 123.216C377.676 123.459 377.868 123.67 378.095 123.839C378.323 124.008 378.581 124.13 378.855 124.198Z" fill="white"/>
<path d="M402.022 140.443C401.761 142.962 400.669 145.323 398.918 147.153C396.598 149.544 394.305 147.936 394.011 144.917C393.746 142.205 394.64 137.689 397.422 136.431C400.205 135.173 402.316 137.409 402.022 140.443Z" fill="#FF8B7B"/>
<path d="M397.632 265.774C397.632 265.774 396.444 338.861 405.629 367.52C420.182 412.913 464.135 449.681 464.135 449.681L479.849 438.343C479.849 438.343 443.249 407.279 436.539 369.072C430.513 334.723 433.072 293.86 433.072 265.802L397.632 265.774Z" fill="#407BFF"/>
<path opacity="0.3" d="M397.632 265.774C397.632 265.774 396.444 338.861 405.629 367.52C420.182 412.913 464.135 449.681 464.135 449.681L479.849 438.343C479.849 438.343 443.249 407.279 436.539 369.072C430.513 334.723 433.072 293.86 433.072 265.802L397.632 265.774Z" fill="black"/>
<path d="M407.877 278.328C409.82 291.497 402.956 328.167 400.58 340.175C398.091 317.724 397.63 291.092 397.588 276.552C402.621 273.141 406.982 272.261 407.877 278.328Z" fill="#407BFF"/>
<path opacity="0.4" d="M407.877 278.328C409.82 291.497 402.956 328.167 400.58 340.175C398.091 317.724 397.63 291.092 397.588 276.552C402.621 273.141 406.982 272.261 407.877 278.328Z" fill="black"/>
<path d="M457.409 446.367C457.339 446.367 463.868 450.212 463.868 450.212L481.021 437.826L475.317 433.45L457.409 446.367Z" fill="#407BFF"/>
<path opacity="0.4" d="M457.409 446.367C457.339 446.367 463.868 450.212 463.868 450.212L481.021 437.826L475.317 433.45L457.409 446.367Z" fill="white"/>
<path d="M378.145 265.774C378.145 265.774 362.669 331.34 361.579 362.655C360.363 397.787 372.623 480.632 372.623 480.632H390.042C390.042 480.632 392.195 397.144 392.964 365.144C393.803 330.264 414.284 265.774 414.284 265.774H378.145Z" fill="#407BFF"/>
<path opacity="0.3" d="M378.145 265.774C378.145 265.774 362.669 331.34 361.579 362.655C360.363 397.787 372.623 480.632 372.623 480.632H390.042C390.042 480.632 392.195 397.144 392.964 365.144C393.803 330.264 414.284 265.774 414.284 265.774H378.145Z" fill="black"/>
<path d="M369.265 473.698C369.195 473.698 370.258 480.926 370.258 480.926H391.437L392.01 474.481L369.265 473.698Z" fill="#407BFF"/>
<path opacity="0.4" d="M369.265 473.698C369.195 473.698 370.258 480.926 370.258 480.926H391.437L392.01 474.481L369.265 473.698Z" fill="white"/>
</svg>
